<?xml version="1.0" encoding="UTF-8" standalone="no"?>
<svg
   xmlns:dc="http://purl.org/dc/elements/1.1/"
   xmlns:cc="http://creativecommons.org/ns#"
   xmlns:rdf="http://www.w3.org/1999/02/22-rdf-syntax-ns#"
   xmlns:svg="http://www.w3.org/2000/svg"
   xmlns="http://www.w3.org/2000/svg"
   viewBox="0 0 233.33333 70.666664"
   height="70.666664"
   width="233.33333"
   xml:space="preserve"
   id="svg2"
   version="1.1"><metadata
     id="metadata8"><rdf:RDF><cc:Work
         rdf:about=""><dc:format>image/svg+xml</dc:format><dc:type
           rdf:resource="http://purl.org/dc/dcmitype/StillImage" /></cc:Work></rdf:RDF></metadata><defs
     id="defs6" /><g
     transform="matrix(1.3333333,0,0,-1.3333333,0,70.666667)"
     id="g10"><g
       transform="scale(0.1)"
       id="g12"><path
         id="path14"
         style="fill:#231f20;fill-opacity:1;fill-rule:nonzero;stroke:none"
         d="m 540.34,164.594 c -18.145,-11.762 -39.781,-18.59 -63.012,-18.59 h -100 v -28 C 377.328,53.9375 325.391,2 261.324,2 c -64.062,0 -116,51.9375 -116,116.004 v 28 h -28 c -64.0662,0 -115.99978,51.934 -115.99978,116 0,64.066 51.93358,116 115.99978,116 h 28 v 28 c 0,64.066 51.938,116 116,116 h 288 c 45.571,0 84.813,-26.32 103.738,-64.09 l 40.266,-80.527 40.086,80.172 c 18.906,37.82 57.957,64.445 103.914,64.445 45.567,0 84.809,-26.32 103.738,-64.09 l 40.262,-80.527 40.082,80.172 c 18.91,37.82 57.96,64.445 103.92,64.445 h 360 c 64.06,0 116,-51.934 116,-116 v -28 h 28 c 64.06,0 116,-51.934 116,-116 0,-64.066 -51.94,-116 -116,-116 h -28 v -28 C 1601.33,53.9375 1549.39,2 1485.33,2 h -288 c -48.89,0 -90.72,30.2461 -107.79,73.0469 l -4.47,-8.9453 C 1066.14,28.293 1026.88,2 981.328,2 935.742,2 896.52,28.3633 877.598,66.0781 L 837.328,146.617 797.07,66.1016 C 778.133,28.293 738.883,2 693.328,2 647.738,2 608.516,28.3633 589.598,66.0781 L 540.34,164.594" /><path
         id="path16"
         style="fill:#ffffff;fill-opacity:1;fill-rule:nonzero;stroke:none"
         d="m 1233.33,226.004 v -72 h 216 v 72 z m -72,36 c 0,19.883 16.12,36 36,36 h 252 v 72 H 1147.58 L 1013.53,101.902 c -5.91,-11.8004 -18.104,-19.8981 -32.202,-19.8981 -14.086,0 -26.285,8.1094 -32.199,19.8981 L 837.328,325.504 725.527,101.902 c -5.91,-11.8004 -18.105,-19.8981 -32.199,-19.8981 -14.086,0 -26.289,8.1094 -32.199,19.8981 L 527.078,370.004 h -229.75 v -72 h 180 c 19.883,0 35.996,-16.117 35.996,-36 0,-19.883 -16.113,-36 -35.996,-36 h -180 v -108 c 0,-19.8829 -16.121,-36.0001 -36.004,-36.0001 -19.883,0 -36,16.1172 -36,36.0001 v 108 h -108 c -19.8826,0 -35.9998,16.117 -35.9998,36 0,19.883 16.1172,36 35.9998,36 h 108 v 108 c 0,19.883 16.117,36 36,36 h 288 c 14.094,0 26.289,-8.106 32.203,-19.899 L 693.328,198.5 804.969,421.785 c 6.066,12.129 18.254,20.219 32.359,20.219 14.09,0 26.289,-8.106 32.199,-19.899 L 981.328,198.5 1092.97,421.785 c 6.07,12.129 18.26,20.219 32.36,20.219 h 360 c 19.88,0 36,-16.117 36,-36 v -108 h 108 c 19.88,0 36,-16.117 36,-36 0,-19.883 -16.12,-36 -36,-36 h -108 v -108 c 0,-19.8829 -16.12,-36.0001 -36,-36.0001 h -288 c -19.88,0 -36,16.1172 -36,36.0001 v 144" /></g></g></svg>